<?xml version="1.0" encoding="utf-8"?>
<!-- Generator: Adobe Illustrator 15.1.0, SVG Export Plug-In . SVG Version: 6.00 Build 0)  -->
<!DOCTYPE svg PUBLIC "-//W3C//DTD SVG 1.1//EN" "http://www.w3.org/Graphics/SVG/1.1/DTD/svg11.dtd">
<svg version="1.1" id="Layer_1" xmlns="http://www.w3.org/2000/svg" xmlns:xlink="http://www.w3.org/1999/xlink" x="0px" y="0px"
	 width="114px" height="114px" viewBox="0 0 114 114" enable-background="new 0 0 114 114" xml:space="preserve">
<path fill="#A01860" d="M107,57.001C107,84.613,84.619,107,56.996,107C29.388,107,7,84.613,7,57.001C7,29.388,29.388,7,56.996,7
	C84.619,7,107,29.388,107,57.001z"/>
<path fill="#FFFFFF" d="M79.941,30.452l-3.41,8.45c-1.877-2.953-3.869-4.858-5.977-5.706c-2.279-0.92-4.462-0.867-6.556,0.158
	c-2.063,0.946-3.604,2.694-4.638,5.248c-0.907,2.248-1.178,4.382-0.801,6.408c0.183,1.075,0.599,2.536,1.256,4.386
	c0.658,1.844,1.562,4.114,2.701,6.802c2.078,5.008,3.228,9.071,3.453,12.194c0.254,3.043-0.357,6.394-1.834,10.059
	c-2.008,4.968-5.063,8.494-9.169,10.585c-4.072,2.004-8.301,2.118-12.687,0.348c-3.688-1.489-6.43-3.776-8.225-6.858l3.468-8.578
	c2.17,3.494,4.521,5.753,7.049,6.771c2.359,0.954,4.521,0.916,6.487-0.112c1.963-1.031,3.492-2.896,4.579-5.584
	c0.941-2.33,1.275-4.639,1-6.912c-0.169-1.102-0.494-2.416-0.968-3.951c-0.479-1.53-1.143-3.294-1.983-5.281
	c-1.318-3.048-2.367-5.701-3.132-7.95c-0.771-2.247-1.253-4.134-1.439-5.667c-0.349-2.977,0.232-6.328,1.735-10.048
	c2.026-5.024,4.939-8.479,8.74-10.37c3.838-1.904,7.979-1.961,12.418-0.166C75.092,25.92,77.736,27.848,79.941,30.452z"/>
</svg>
